<?xml version="1.0" encoding="utf-8"?>
<!-- Generator: Adobe Illustrator 16.0.0, SVG Export Plug-In . SVG Version: 6.00 Build 0)  -->
<!DOCTYPE svg PUBLIC "-//W3C//DTD SVG 1.1//EN" "http://www.w3.org/Graphics/SVG/1.1/DTD/svg11.dtd">
<svg version="1.1" id="Calque_1" xmlns="http://www.w3.org/2000/svg" xmlns:xlink="http://www.w3.org/1999/xlink" x="0px" y="0px"
	 width="265px" height="190px" viewBox="0 0 265 190" enable-background="new 0 0 265 190" xml:space="preserve">
<g id="Customers">
	<g id="Customer_x2F_Detail_x2F_Detail" transform="translate(-1002.000000, -376.000000)">
		<g id="cards" transform="translate(161.000000, 211.000000)">
			<g id="loyalty-copy-9" transform="translate(794.000000, 0.000000)">
				<g id="Group-8" transform="translate(47.000000, 164.000000)">
					<g id="Group-6" transform="translate(7.000000, 14.000000)">
						<g id="Group-4" transform="translate(33.404108, 0.000000)">
							<g id="Rectangle-4">
								<path fill="#151B29" d="M31.345,67.221h118.684v77.146c0,2.525-2.046,4.573-4.571,4.573H35.916
									c-2.525,0-4.571-2.048-4.571-4.573V67.221z"/>
								<path fill="#F5F5F5" d="M145.457,149.44H35.916c-2.796,0-5.071-2.275-5.071-5.073V66.721h119.684v77.646
									C150.529,147.165,148.253,149.44,145.457,149.44z M31.845,67.721v76.646c0,2.246,1.826,4.073,4.071,4.073h109.541
									c2.245,0,4.071-1.827,4.071-4.073V67.721H31.845z"/>
							</g>
							<g id="Rectangle-5">
								<path fill="#151B29" d="M26.931,44.934h127.511c1.658,0,3.005,1.345,3.005,3.004v16.279c0,1.658-1.347,3.003-3.005,3.003
									H26.931c-1.66,0-3.004-1.345-3.004-3.003V47.938C23.927,46.279,25.272,44.934,26.931,44.934z"/>
								<path fill="#F5F5F5" d="M154.443,67.721H26.931c-1.932,0-3.504-1.572-3.504-3.503V47.938c0-1.932,1.572-3.504,3.504-3.504
									h127.511c1.933,0,3.505,1.572,3.505,3.504v16.279C157.947,66.149,156.375,67.721,154.443,67.721z M26.931,45.434
									c-1.381,0-2.504,1.124-2.504,2.504v16.279c0,1.38,1.124,2.503,2.504,2.503h127.511c1.381,0,2.505-1.123,2.505-2.503V47.938
									c0-1.381-1.124-2.504-2.505-2.504H26.931z"/>
							</g>
							<g id="Triangle">
								<path fill="#59BDBA" d="M90.693,46.461c-0.085,0-0.17-0.013-0.253-0.041l-22.823-7.623c-3.247-1.084-5.876-3.368-7.405-6.43
									c-1.528-3.062-1.773-6.536-0.688-9.783c0.624-1.874,1.694-3.604,3.093-5.001c2.419-2.42,5.637-3.752,9.06-3.752
									c3.422,0,6.64,1.333,9.061,3.752c1.397,1.396,2.467,3.125,3.093,5.001l7.569,22.665c0.073,0.12,0.114,0.261,0.114,0.412
									c0,0.442-0.358,0.8-0.8,0.8C90.706,46.46,90.699,46.461,90.693,46.461z M71.675,15.43c-2.995,0-5.811,1.167-7.928,3.284
									c-1.225,1.224-2.16,2.737-2.707,4.376c-0.949,2.842-0.735,5.882,0.603,8.562s3.639,4.678,6.48,5.626l21.303,7.115
									l-7.115-21.303c-0.548-1.642-1.484-3.155-2.707-4.376C77.486,16.597,74.67,15.43,71.675,15.43z"/>
							</g>
							<g id="Triangle-Copy">
								<path fill="#59BDBA" d="M90.626,46.464c-0.209,0-0.413-0.082-0.566-0.234c-0.214-0.215-0.289-0.532-0.193-0.819
									l7.624-22.825c1.749-5.238,6.632-8.757,12.151-8.757c1.376,0,2.742,0.223,4.06,0.663c1.876,0.626,3.605,1.696,5.003,3.093
									c4.994,4.996,4.995,13.125,0,18.122c-1.396,1.396-3.126,2.465-5.002,3.093L90.88,46.423
									C90.797,46.451,90.711,46.464,90.626,46.464z M109.643,15.428c-4.83,0-9.103,3.08-10.634,7.664l-7.116,21.305l21.303-7.116
									c1.643-0.549,3.156-1.485,4.379-2.707c4.37-4.373,4.37-11.487,0-15.859c-1.224-1.223-2.737-2.159-4.379-2.707
									C112.042,15.624,110.847,15.428,109.643,15.428z"/>
							</g>
							<g id="Line">
								<path fill="#59BDBA" d="M69.175,149.21c-0.332,0-0.6-0.269-0.6-0.6v-52.05c0-0.331,0.269-0.6,0.6-0.6s0.6,0.269,0.6,0.6
									v52.05C69.775,148.941,69.507,149.21,69.175,149.21z"/>
							</g>
							<g id="Line_1_">
								<path fill="#59BDBA" d="M144.854,125.147H33.546c-0.332,0-0.6-0.269-0.6-0.6s0.269-0.6,0.6-0.6h111.308
									c0.331,0,0.6,0.269,0.6,0.6S145.185,125.147,144.854,125.147z"/>
							</g>
							<g id="Group" transform="translate(22.515387, 32.786550)">
								<g id="Group-9" transform="translate(0.787718, 0.786228)">
									<g id="Rectangle-6_1_">
										<path fill="#59BDBA" d="M56.592,70.143c-0.194,0-0.384-0.07-0.532-0.202l-8.284-7.377L36.913,64.81
											c-0.278,0.059-0.559-0.034-0.749-0.239c-0.19-0.205-0.26-0.495-0.183-0.764l8.398-29.341
											c0.122-0.425,0.565-0.669,0.989-0.549c0.425,0.122,0.67,0.564,0.549,0.989l-8.034,28.069l9.962-2.061
											c0.249-0.053,0.505,0.018,0.694,0.186l7.63,6.796l9.521-33.604c0.12-0.425,0.56-0.673,0.988-0.551
											c0.425,0.12,0.672,0.562,0.551,0.988l-9.87,34.832c-0.075,0.266-0.281,0.474-0.546,0.55
											C56.742,70.132,56.667,70.143,56.592,70.143z"/>
									</g>
									<g id="Rectangle-6-Copy_1_">
										<path fill="#59BDBA" d="M78.231,70.055c-0.075,0-0.15-0.011-0.224-0.032c-0.265-0.076-0.471-0.284-0.546-0.55
											l-9.846-34.744c-0.121-0.425,0.126-0.868,0.551-0.988c0.427-0.12,0.868,0.126,0.988,0.551l9.499,33.516l7.631-6.795
											c0.19-0.168,0.447-0.238,0.694-0.186l9.96,2.06l-8.012-27.959c-0.121-0.425,0.124-0.868,0.549-0.989
											c0.434-0.122,0.867,0.125,0.99,0.549l8.376,29.23c0.076,0.27,0.008,0.56-0.183,0.765c-0.19,0.206-0.475,0.301-0.749,0.239
											l-10.862-2.245l-8.284,7.376C78.615,69.985,78.425,70.055,78.231,70.055z"/>
									</g>
								</g>
							</g>
						</g>
						
							<g id="Group-3" transform="translate(31.244612, 65.874701) rotate(-47.000000) translate(-31.244612, -65.874701) translate(11.744612, 41.374701)">
							
								<g id="Group-2" transform="translate(19.374108, 24.510200) rotate(-6.000000) translate(-19.374108, -24.510200) translate(2.374108, 2.010200)">
								<g id="Line-2">
									<path fill="#3A4468" d="M-30.289,55.137c-0.174-0.23-0.217-0.547-0.083-0.826c3.252-6.823,8.656-10.678,16.062-11.456
										c8.907-0.938,16.284,1.65,21.926,7.693c0.299,0.322,0.284,0.829-0.039,1.131c-0.323,0.302-0.829,0.284-1.131-0.039
										c-5.28-5.656-12.207-8.076-20.588-7.194C-21.053,45.172-25.89,48.624-28.929,55c-0.19,0.399-0.668,0.568-1.066,0.378
										C-30.115,55.32-30.214,55.236-30.289,55.137z"/>
								</g>
								<g id="Rectangle-7">
									<path fill="#151B29" d="M-12.416,50.642l12.508-6.885c1.232-0.678,2.778-0.263,3.501,0.943l10.561,17.592
										c0.493,0.826,0.563,1.836,0.189,2.721L0.181,98.377c-0.845,1.991-3.145,2.92-5.138,2.075l-21.527-9.137
										c-1.992-0.845-2.922-3.146-2.076-5.137l14.142-33.318C-14.018,51.917-13.312,51.134-12.416,50.642z"/>
									<path fill="#F5F5F5" d="M-28.48,90.369c-0.948-1.258-1.155-2.94-0.541-4.388l14.142-33.318
										c0.442-1.042,1.232-1.916,2.222-2.46l12.508-6.885c1.444-0.795,3.307-0.322,4.171,1.124l10.561,17.591
										c0.573,0.961,0.655,2.147,0.221,3.173L0.641,98.572c-0.461,1.086-1.317,1.927-2.411,2.369
										c-1.095,0.442-2.296,0.431-3.382-0.03l-21.527-9.137C-27.393,91.471-28.016,90.986-28.48,90.369z M3.038,44.769
										c-0.626-0.831-1.789-1.078-2.705-0.574l-12.508,6.885c-0.795,0.436-1.428,1.138-1.783,1.975L-28.1,86.372
										c-0.476,1.121-0.316,2.421,0.419,3.395c0.359,0.476,0.84,0.852,1.392,1.086l21.527,9.137
										c0.841,0.357,1.77,0.365,2.617,0.023c0.846-0.342,1.509-0.993,1.865-1.833l14.163-33.365
										c0.311-0.734,0.252-1.582-0.158-2.269L3.165,44.957C3.125,44.892,3.083,44.829,3.038,44.769z"/>
								</g>
								<g id="Rectangle-7_1_">
									<path fill="#151B29" d="M-16.23,51.091l11.954-15.962c1.513-2.02,4.378-2.432,6.398-0.918
										c0.35,0.261,0.658,0.57,0.92,0.919l11.953,15.962l-0.001,37.775c-0.001,2.164-1.755,3.918-3.918,3.918l-23.388,0
										c-2.163,0-3.917-1.755-3.917-3.919L-16.23,51.091z"/>
									<path fill="#F5F5F5" d="M-15.841,91.523c-0.581-0.771-0.888-1.691-0.888-2.658l-0.001-37.942l12.054-16.095
										c0.812-1.084,1.997-1.788,3.338-1.98c1.34-0.193,2.676,0.148,3.76,0.96c0.383,0.286,0.723,0.626,1.013,1.01l12.06,16.105
										l0,0.166l-0.001,37.775c-0.001,2.436-1.982,4.418-4.418,4.419l-23.388,0C-13.711,93.284-14.998,92.642-15.841,91.523z
										 M-15.73,51.258l0.001,37.608c0,0.749,0.237,1.46,0.686,2.056c0.653,0.866,1.648,1.363,2.73,1.363l23.388,0
										c1.884,0,3.417-1.534,3.418-3.419l0.002-37.609L2.641,35.429l0,0c-0.238-0.315-0.511-0.588-0.819-0.818
										c-0.87-0.653-1.942-0.926-3.018-0.771c-1.076,0.154-2.028,0.718-2.679,1.589L-15.73,51.258z"/>
								</g>
								<g id="Oval-2">
									<g>
										<path fill="#59BDBA" d="M-3.914,53.578c-0.544-0.722-0.832-1.582-0.83-2.489c-0.001-1.102,0.428-2.139,1.207-2.92
											c0.78-0.78,1.817-1.211,2.92-1.211c1.307-0.002,2.51,0.598,3.298,1.644c0.544,0.721,0.831,1.581,0.831,2.487
											c0,2.278-1.853,4.132-4.131,4.133C-1.926,55.222-3.127,54.623-3.914,53.578z M1.722,49.325
											c-0.56-0.743-1.412-1.168-2.339-1.167c-0.783,0-1.518,0.305-2.071,0.859c-0.553,0.553-0.857,1.289-0.856,2.072
											c-0.002,1.579,1.359,2.935,2.926,2.934c1.615,0,2.93-1.316,2.929-2.933C2.311,50.447,2.107,49.837,1.722,49.325z"/>
									</g>
								</g>
								<g id="Star">
									<path fill="#59BDBA" d="M-0.801,78.125l-3.535,1.861c-0.193,0.101-0.429,0.028-0.53-0.163
										c-0.039-0.077-0.054-0.164-0.037-0.249l0.674-3.945c0.022-0.127-0.02-0.257-0.113-0.347l-2.863-2.795
										c-0.154-0.151-0.158-0.399-0.006-0.554c0.059-0.061,0.139-0.101,0.224-0.113l3.955-0.576
										c0.127-0.019,0.237-0.099,0.295-0.216l1.768-3.587c0.096-0.195,0.332-0.276,0.526-0.18
										c0.078,0.037,0.141,0.101,0.177,0.179l1.769,3.588c0.057,0.116,0.168,0.196,0.297,0.214l3.956,0.576
										c0.212,0.032,0.362,0.231,0.331,0.445c-0.013,0.085-0.053,0.163-0.114,0.223L3.108,75.28
										c-0.095,0.092-0.136,0.221-0.113,0.347l0.675,3.946c0.036,0.214-0.107,0.416-0.32,0.452
										c-0.084,0.015-0.174,0.002-0.249-0.038l-3.537-1.864C-0.549,78.063-0.687,78.064-0.801,78.125z"/>
								</g>
								<g id="Line-2_1_">
									<path fill="#3A4468" d="M-28.274,44.521c-0.543-0.721-1.05-1.481-1.521-2.281c-0.224-0.381-0.097-0.872,0.284-1.095
										c0.381-0.224,0.878-0.105,1.095,0.284c2.719,4.629,6.764,7.84,12.011,9.545c5.304,1.721,10.001,1.577,14.782-0.451
										c0.407-0.172,0.871,0.018,1.05,0.424c0.172,0.407-0.017,0.876-0.424,1.049c-5.157,2.188-10.21,2.347-15.902,0.5
										C-21.624,50.959-25.44,48.282-28.274,44.521z"/>
								</g>
							</g>
						</g>
						<g id="Group-5" transform="translate(99.050598, 55.568396)">
							<g id="Star_1_">
								<path fill="#151B29" d="M87.744,93.102l-7.138,3.68c-0.642,0.332-1.429,0.08-1.759-0.562
									c-0.002-0.004-0.004-0.009-0.007-0.013l-3.763-7.477c-0.183-0.365-0.529-0.625-0.93-0.699l-7.905-1.461
									c-0.685-0.129-1.149-0.768-1.058-1.459l1.143-8.514c0.052-0.384-0.07-0.773-0.332-1.057l-5.671-6.184
									c-0.458-0.498-0.458-1.264,0-1.766l5.671-6.181c0.262-0.286,0.384-0.672,0.332-1.056l-1.143-8.515
									c-0.092-0.69,0.373-1.333,1.058-1.46l7.905-1.461c0.4-0.075,0.747-0.334,0.93-0.697l3.763-7.479
									c0.326-0.644,1.109-0.903,1.756-0.58c0.003,0.003,0.005,0.005,0.01,0.005l7.138,3.681c0.375,0.192,0.821,0.192,1.195,0
									l7.138-3.681c0.642-0.328,1.431-0.078,1.761,0.564c0.002,0.004,0.002,0.006,0.006,0.011l3.762,7.479
									c0.184,0.363,0.528,0.622,0.93,0.697l7.906,1.461c0.684,0.127,1.148,0.77,1.057,1.46l-1.141,8.515
									c-0.052,0.384,0.068,0.77,0.331,1.056l5.67,6.181c0.459,0.502,0.459,1.268,0,1.766l-5.67,6.184
									c-0.263,0.283-0.383,0.673-0.331,1.057l1.141,8.514c0.092,0.691-0.373,1.33-1.057,1.459l-7.906,1.461
									c-0.401,0.074-0.746,0.334-0.93,0.699l-3.762,7.477c-0.324,0.646-1.11,0.906-1.756,0.58
									c-0.003-0.002-0.006-0.004-0.011-0.006l-7.138-3.68C88.566,92.909,88.119,92.909,87.744,93.102z"/>
								<path fill="#F5F5F5" d="M96.676,97.428c-0.28,0-0.562-0.067-0.813-0.194l-7.152-3.688c-0.112-0.058-0.24-0.089-0.368-0.089
									l0,0c-0.128,0-0.256,0.031-0.369,0.09l-7.137,3.679c-0.864,0.444-1.991,0.082-2.433-0.777l-3.771-7.493
									c-0.113-0.226-0.327-0.387-0.574-0.433l-7.905-1.461c-0.947-0.178-1.589-1.063-1.463-2.016l1.144-8.515
									c0.031-0.235-0.045-0.479-0.204-0.651l-5.672-6.185c-0.638-0.693-0.639-1.742-0.001-2.44l5.672-6.182
									c0.162-0.177,0.236-0.415,0.205-0.651l-1.143-8.515c-0.128-0.956,0.515-1.843,1.462-2.018l7.905-1.461
									c0.247-0.047,0.462-0.208,0.574-0.431l3.763-7.479c0.422-0.833,1.47-1.214,2.322-0.851h0.011l7.246,3.736
									c0.225,0.115,0.511,0.115,0.737,0l7.137-3.681c0.873-0.445,1.994-0.076,2.435,0.78l3.77,7.494
									c0.113,0.223,0.328,0.384,0.575,0.431l7.905,1.461c0.946,0.176,1.589,1.062,1.462,2.017l-1.142,8.516
									c-0.031,0.238,0.043,0.476,0.204,0.651l5.67,6.181c0.64,0.699,0.639,1.749,0,2.442l-5.67,6.183
									c-0.162,0.176-0.236,0.412-0.204,0.652l1.141,8.514c0.127,0.953-0.515,1.839-1.459,2.017l-7.908,1.461
									c-0.246,0.046-0.461,0.208-0.574,0.433l-3.762,7.477C97.983,97.046,97.363,97.428,96.676,97.428z M88.342,92.457
									c0.287,0,0.572,0.069,0.826,0.2l7.139,3.68c0.417,0.21,0.896,0.033,1.09-0.354l3.763-7.477
									c0.252-0.503,0.733-0.864,1.285-0.966l7.906-1.461c0.421-0.08,0.708-0.476,0.651-0.902l-1.14-8.513
									c-0.073-0.536,0.095-1.07,0.46-1.463l5.668-6.182c0.285-0.31,0.284-0.778-0.001-1.09l-5.669-6.181
									c-0.363-0.396-0.53-0.928-0.458-1.46l1.141-8.515c0.057-0.427-0.23-0.823-0.652-0.902l-7.906-1.461
									c-0.553-0.104-1.032-0.463-1.285-0.963l-3.782-7.521c-0.174-0.334-0.682-0.515-1.072-0.313l-7.136,3.68
									c-0.509,0.261-1.143,0.262-1.653,0.001l-7.205-3.712c-0.381-0.152-0.838,0.02-1.023,0.387l-3.763,7.479
									c-0.251,0.5-0.73,0.86-1.283,0.964l-7.907,1.461c-0.423,0.079-0.71,0.476-0.652,0.903l1.142,8.514
									c0.072,0.53-0.095,1.062-0.458,1.46l-5.672,6.181c-0.284,0.312-0.284,0.78,0,1.089l5.671,6.185
									c0.363,0.394,0.531,0.927,0.459,1.461l-1.143,8.514c-0.056,0.426,0.231,0.821,0.655,0.901l7.903,1.461
									c0.554,0.103,1.034,0.464,1.286,0.967l3.762,7.476c0.204,0.396,0.699,0.557,1.09,0.354l7.138-3.68
									C87.771,92.526,88.056,92.457,88.342,92.457z"/>
							</g>
							<g id="Oval-4">
								<path fill="#59BDBA" d="M88.276,83.285c-8.151,0-14.783-6.642-14.783-14.805s6.632-14.805,14.783-14.805
									s14.782,6.642,14.782,14.805S96.427,83.285,88.276,83.285z M88.276,54.875c-7.49,0-13.584,6.104-13.584,13.605
									s6.094,13.605,13.584,13.605c7.489,0,13.583-6.104,13.583-13.605S95.765,54.875,88.276,54.875z"/>
							</g>
							<g id="_x25_">
								<path fill="#FFFFFF" d="M82.934,64.644c0-0.705,0.229-1.29,0.683-1.753s1.101-0.694,1.939-0.694
									c0.851,0,1.503,0.231,1.958,0.694c0.453,0.463,0.682,1.048,0.682,1.753v0.626c0,0.704-0.229,1.285-0.682,1.744
									c-0.455,0.459-1.102,0.688-1.939,0.688c-0.844,0-1.496-0.23-1.955-0.691c-0.456-0.46-0.686-1.041-0.686-1.74V64.644z
									 M84.688,65.269c0,0.27,0.075,0.498,0.228,0.679c0.151,0.183,0.371,0.272,0.659,0.272c0.275,0,0.488-0.09,0.636-0.272
									c0.149-0.181,0.224-0.409,0.224-0.679v-0.626c0-0.271-0.076-0.501-0.226-0.688c-0.153-0.187-0.368-0.28-0.652-0.28
									c-0.274,0-0.489,0.094-0.641,0.28c-0.152,0.187-0.228,0.417-0.228,0.688V65.269z M88.545,71.305
									c0-0.699,0.23-1.281,0.689-1.746c0.461-0.463,1.11-0.695,1.949-0.695c0.851,0,1.5,0.23,1.952,0.693
									c0.453,0.459,0.679,1.042,0.679,1.748v0.624c0,0.712-0.226,1.296-0.679,1.753c-0.452,0.459-1.097,0.688-1.935,0.688
									c-0.845,0-1.499-0.231-1.961-0.692c-0.465-0.462-0.695-1.043-0.695-1.749V71.305z M90.309,71.929
									c0,0.261,0.086,0.485,0.258,0.675c0.174,0.19,0.387,0.286,0.635,0.286c0.334,0,0.563-0.083,0.682-0.253
									c0.119-0.168,0.18-0.404,0.18-0.708v-0.624c0-0.268-0.078-0.492-0.231-0.68c-0.155-0.187-0.372-0.28-0.647-0.28
									c-0.281,0-0.498,0.094-0.65,0.28c-0.149,0.188-0.225,0.412-0.225,0.68V71.929z M85.946,73.32l-1.273-0.643l5.772-9.255
									l1.273,0.642L85.946,73.32z"/>
							</g>
						</g>
					</g>
					<g id="Group-7">
						<g id="Star_2_">
							<path fill="#E8EAF6" d="M191.251,17.915l-1.453,3.95c-0.076,0.204-0.302,0.307-0.505,0.232
								c-0.11-0.041-0.195-0.129-0.234-0.24l-1.339-3.883c-0.039-0.114-0.13-0.203-0.242-0.243l-3.884-1.339
								c-0.203-0.07-0.312-0.293-0.243-0.498c0.04-0.11,0.126-0.199,0.235-0.24l3.95-1.454c0.108-0.039,0.192-0.125,0.231-0.232
								l1.455-3.95c0.074-0.203,0.301-0.308,0.502-0.233c0.111,0.041,0.197,0.129,0.236,0.24l1.338,3.883
								c0.039,0.114,0.13,0.204,0.245,0.243l3.882,1.339c0.205,0.071,0.312,0.294,0.242,0.498c-0.039,0.111-0.123,0.199-0.235,0.24
								l-3.95,1.454C191.375,17.721,191.291,17.807,191.251,17.915z"/>
						</g>
						<g id="Star-Copy-6">
							<path fill="#E8EAF6" d="M10.059,175.088l-1.454,3.949c-0.075,0.202-0.3,0.309-0.504,0.232
								c-0.11-0.041-0.197-0.129-0.234-0.241l-1.338-3.882c-0.04-0.113-0.13-0.203-0.243-0.243l-3.885-1.339
								c-0.204-0.07-0.312-0.294-0.242-0.498c0.038-0.11,0.125-0.199,0.236-0.24l3.949-1.453c0.107-0.04,0.193-0.125,0.233-0.232
								l1.454-3.95c0.075-0.203,0.301-0.308,0.503-0.232c0.111,0.04,0.198,0.128,0.236,0.239l1.338,3.883
								c0.04,0.114,0.129,0.203,0.244,0.242l3.882,1.34c0.206,0.07,0.314,0.294,0.244,0.498c-0.038,0.111-0.125,0.199-0.236,0.24
								l-3.95,1.455C10.183,174.895,10.098,174.979,10.059,175.088z"/>
						</g>
						<g id="Star-Copy">
							<path fill="#E8EAF6" d="M214.21,8.558l-0.821,2.234c-0.076,0.202-0.301,0.307-0.503,0.232
								c-0.111-0.042-0.196-0.129-0.235-0.24l-0.752-2.183c-0.04-0.114-0.129-0.204-0.243-0.243l-2.183-0.752
								c-0.203-0.071-0.312-0.294-0.242-0.499c0.039-0.112,0.123-0.2,0.235-0.239l2.231-0.823c0.109-0.039,0.193-0.124,0.232-0.231
								l0.824-2.233c0.074-0.203,0.299-0.307,0.502-0.232c0.111,0.041,0.196,0.128,0.236,0.24l0.75,2.183
								c0.039,0.114,0.13,0.203,0.244,0.242l2.182,0.752c0.204,0.07,0.312,0.293,0.243,0.498c-0.039,0.111-0.125,0.2-0.235,0.24
								l-2.233,0.822C214.336,8.366,214.25,8.45,214.21,8.558z"/>
						</g>
						<g id="Star-Copy-8">
							<path fill="#E8EAF6" d="M33.018,165.73l-0.822,2.233c-0.075,0.204-0.3,0.308-0.503,0.232c-0.11-0.041-0.196-0.128-0.234-0.24
								l-0.753-2.183c-0.039-0.113-0.128-0.202-0.243-0.241l-2.182-0.755c-0.204-0.068-0.313-0.291-0.243-0.496
								c0.039-0.113,0.124-0.199,0.236-0.24l2.233-0.821c0.107-0.04,0.192-0.126,0.231-0.232l0.823-2.234
								c0.074-0.202,0.299-0.306,0.503-0.232c0.11,0.042,0.196,0.13,0.235,0.241l0.752,2.182c0.04,0.113,0.129,0.203,0.244,0.242
								l2.181,0.752c0.205,0.071,0.313,0.295,0.244,0.5c-0.039,0.109-0.125,0.198-0.235,0.238l-2.233,0.823
								C33.143,165.538,33.058,165.623,33.018,165.73z"/>
						</g>
						<g id="Star-Copy-2">
							<path fill="#E8EAF6" d="M211.959,29.509l-1.455,3.95c-0.074,0.203-0.299,0.307-0.502,0.232
								c-0.11-0.042-0.198-0.129-0.236-0.24l-1.338-3.884c-0.04-0.114-0.129-0.203-0.243-0.242l-3.884-1.34
								c-0.205-0.069-0.313-0.292-0.242-0.497c0.037-0.112,0.125-0.2,0.235-0.24l3.95-1.455c0.107-0.039,0.191-0.125,0.232-0.231
								l1.453-3.95c0.076-0.204,0.301-0.308,0.504-0.232c0.11,0.04,0.196,0.127,0.236,0.239l1.338,3.883
								c0.04,0.114,0.129,0.204,0.241,0.243l3.884,1.339c0.205,0.07,0.314,0.292,0.242,0.498c-0.037,0.112-0.124,0.199-0.232,0.24
								l-3.951,1.454C212.084,29.316,211.999,29.401,211.959,29.509z"/>
						</g>
						<g id="Star-Copy-9">
							<path fill="#E8EAF6" d="M32.061,185.395l-1.455,3.949c-0.075,0.203-0.3,0.307-0.503,0.232
								c-0.11-0.041-0.196-0.13-0.234-0.241l-1.338-3.883c-0.041-0.112-0.129-0.203-0.243-0.241l-3.884-1.341
								c-0.204-0.07-0.313-0.292-0.242-0.496c0.038-0.112,0.125-0.2,0.234-0.241l3.952-1.453c0.106-0.04,0.192-0.124,0.231-0.232
								l1.455-3.951c0.075-0.203,0.301-0.307,0.503-0.23c0.111,0.037,0.196,0.127,0.235,0.237l1.339,3.884
								c0.039,0.115,0.129,0.205,0.243,0.244l3.883,1.338c0.205,0.07,0.313,0.293,0.243,0.498c-0.038,0.111-0.125,0.199-0.235,0.239
								l-3.949,1.456C32.185,185.201,32.1,185.285,32.061,185.395z"/>
						</g>
					</g>
					<g id="Group-7-Copy" transform="translate(3.000000, 18.000000)">
						<g id="Star_3_">
							<path fill="#E8EAF6" d="M11.689,30.243l-1.151,3.164c-0.075,0.204-0.299,0.308-0.502,0.234
								c-0.111-0.04-0.197-0.128-0.236-0.239l-1.091-3.124c-0.04-0.113-0.126-0.204-0.24-0.242l-3.126-1.09
								c-0.204-0.071-0.312-0.295-0.241-0.499c0.04-0.111,0.125-0.199,0.236-0.239l3.164-1.152c0.109-0.039,0.195-0.125,0.234-0.233
								l1.152-3.164c0.074-0.203,0.299-0.309,0.502-0.234c0.111,0.039,0.198,0.128,0.236,0.238l1.091,3.126
								c0.038,0.113,0.127,0.202,0.241,0.241l3.125,1.089c0.205,0.072,0.312,0.295,0.24,0.499c-0.038,0.112-0.125,0.2-0.236,0.24
								l-3.164,1.151C11.814,30.048,11.729,30.135,11.689,30.243z"/>
						</g>
						<g id="Star-Copy_1_">
							<path fill="#E8EAF6" d="M35.072,20.669l-1.47,4.038c-0.074,0.204-0.298,0.309-0.502,0.234
								c-0.11-0.04-0.197-0.128-0.235-0.239l-1.394-3.994c-0.039-0.112-0.128-0.202-0.24-0.24l-3.994-1.395
								c-0.205-0.071-0.313-0.294-0.241-0.499c0.038-0.11,0.124-0.199,0.235-0.239l4.038-1.47c0.109-0.039,0.195-0.125,0.234-0.234
								l1.47-4.039c0.074-0.203,0.298-0.308,0.501-0.234c0.112,0.041,0.198,0.129,0.236,0.24l1.395,3.993
								c0.039,0.112,0.127,0.202,0.24,0.24l3.993,1.394c0.205,0.071,0.312,0.295,0.242,0.5c-0.039,0.111-0.126,0.199-0.236,0.239
								l-4.038,1.47C35.196,20.475,35.111,20.561,35.072,20.669z"/>
						</g>
					</g>
					<g id="Star-Copy-2_1_">
						<path fill="#E8EAF6" d="M238.35,110.116l-0.592,1.667c-0.074,0.203-0.297,0.311-0.503,0.236
							c-0.11-0.04-0.195-0.126-0.235-0.236l-0.594-1.667c-0.041-0.111-0.126-0.197-0.238-0.237l-1.666-0.593
							c-0.203-0.073-0.311-0.297-0.236-0.5c0.04-0.111,0.127-0.198,0.236-0.238l1.666-0.593c0.112-0.041,0.197-0.127,0.238-0.238
							l0.594-1.666c0.073-0.203,0.295-0.311,0.499-0.237c0.112,0.04,0.197,0.128,0.239,0.237l0.592,1.666
							c0.041,0.111,0.127,0.197,0.238,0.238l1.666,0.593c0.203,0.073,0.31,0.297,0.236,0.501c-0.039,0.111-0.126,0.195-0.236,0.237
							l-1.666,0.593C238.477,109.919,238.391,110.005,238.35,110.116z"/>
					</g>
					<g id="Star-Copy-7">
						<path fill="#E8EAF6" d="M261.507,52.995l-0.592,1.667c-0.074,0.204-0.297,0.31-0.502,0.237
							c-0.11-0.039-0.196-0.127-0.237-0.237l-0.592-1.667c-0.041-0.111-0.127-0.197-0.238-0.237l-1.666-0.594
							c-0.203-0.073-0.312-0.296-0.238-0.5c0.041-0.112,0.128-0.198,0.238-0.239l1.666-0.593c0.111-0.04,0.197-0.126,0.238-0.237
							l0.592-1.667c0.074-0.203,0.297-0.31,0.502-0.237c0.11,0.04,0.197,0.128,0.237,0.237l0.592,1.667
							c0.042,0.11,0.126,0.197,0.239,0.237l1.665,0.593c0.204,0.075,0.311,0.298,0.237,0.501c-0.039,0.112-0.128,0.198-0.237,0.238
							l-1.665,0.594C261.633,52.798,261.549,52.884,261.507,52.995z"/>
					</g>
					<g id="Star-Copy-4">
						<path fill="#E8EAF6" d="M9.864,76.153l-0.593,1.665c-0.073,0.204-0.297,0.311-0.501,0.238
							c-0.111-0.04-0.197-0.127-0.237-0.238l-0.593-1.665c-0.041-0.111-0.126-0.198-0.238-0.237l-1.666-0.593
							c-0.204-0.073-0.312-0.298-0.237-0.501c0.039-0.112,0.126-0.198,0.237-0.238l1.666-0.593c0.111-0.04,0.197-0.127,0.238-0.237
							l0.593-1.667c0.073-0.203,0.297-0.311,0.5-0.237c0.112,0.04,0.198,0.126,0.238,0.237l0.593,1.667
							c0.04,0.11,0.126,0.197,0.237,0.237l1.666,0.593c0.204,0.073,0.311,0.297,0.237,0.501c-0.039,0.11-0.126,0.198-0.237,0.238
							l-1.666,0.593C9.99,75.955,9.903,76.042,9.864,76.153z"/>
					</g>
				</g>
			</g>
		</g>
	</g>
</g>
</svg>
